<?xml version="1.0" standalone="no"?>
<!DOCTYPE svg PUBLIC "-//W3C//DTD SVG 20010904//EN"
 "http://www.w3.org/TR/2001/REC-SVG-20010904/DTD/svg10.dtd">
<svg version="1.0" xmlns="http://www.w3.org/2000/svg"
 width="543.000000pt" height="543.000000pt" viewBox="0 0 543.000000 543.000000"
 preserveAspectRatio="xMidYMid meet">
<metadata>
Created by potrace 1.14, written by Peter Selinger 2001-2017
</metadata>
<g transform="translate(0.000000,543.000000) scale(0.100000,-0.100000)"
fill="#000000" stroke="none">
<path d="M1960 5408 c-451 -97 -879 -338 -1245 -703 -386 -383 -611 -823 -689
-1345 -23 -154 -24 -486 -2 -630 2 -14 7 -47 11 -73 4 -27 8 -59 11 -70 2 -12
7 -35 9 -52 3 -16 8 -37 10 -45 2 -8 6 -26 9 -40 26 -144 89 -338 181 -555 98
-231 251 -484 431 -710 88 -110 350 -379 433 -445 24 -19 48 -40 55 -45 33
-31 183 -140 271 -197 314 -204 646 -345 995 -422 140 -31 160 -34 229 -42 30
-3 63 -7 73 -9 111 -22 760 -22 875 -1 10 2 50 7 88 10 39 4 111 14 160 23 50
8 104 17 120 20 133 21 432 113 562 173 45 21 59 36 20 21 -23 -9 -45 -12
-197 -31 -208 -25 -641 6 -905 65 -11 3 -29 7 -40 9 -249 52 -568 166 -817
292 -126 65 -339 200 -408 259 -431 374 -721 811 -863 1301 -19 65 -37 135
-40 154 -3 19 -8 46 -11 60 -3 14 -8 50 -12 80 -3 30 -8 69 -10 85 -8 41 -7
272 1 326 3 24 8 62 11 84 21 159 100 373 189 516 110 175 291 341 473 435 62
31 73 41 69 58 -3 12 -16 64 -31 116 -46 172 -64 331 -61 565 2 116 6 224 9
240 3 17 11 59 17 95 19 109 66 291 97 371 17 44 24 76 18 76 -6 0 -49 -9 -96
-19z"/>
<path d="M3505 4634 c12 -117 6 -369 -10 -424 -3 -8 -7 -33 -11 -55 -3 -22
-19 -78 -34 -125 -16 -46 -28 -85 -27 -85 1 0 34 -15 72 -34 196 -93 406 -305
522 -526 63 -121 123 -313 140 -455 16 -130 8 -406 -15 -537 -67 -371 -240
-751 -495 -1088 -67 -89 -75 -98 -173 -205 -174 -190 -336 -321 -547 -440 -53
-30 -97 -57 -97 -60 0 -9 284 -115 410 -153 115 -35 128 -36 164 -5 6 4 58 44
116 87 392 292 728 730 923 1201 78 190 148 437 172 610 3 25 8 52 10 60 27
101 27 577 0 710 -3 14 -7 39 -9 55 -27 196 -114 458 -220 660 -50 97 -166
279 -203 320 -10 11 -38 44 -63 74 -130 158 -323 311 -548 435 l-84 46 7 -66z"/>
<path d="M4324 4608 c-2 -94 -29 -244 -55 -314 l-20 -53 55 -74 c190 -257 341
-614 387 -912 5 -33 11 -71 14 -84 20 -102 28 -534 12 -671 -7 -61 -10 -82
-22 -155 -62 -380 -191 -727 -398 -1067 -68 -113 -200 -297 -269 -375 -175
-198 -352 -363 -517 -481 -28 -20 -39 -33 -30 -36 16 -5 106 -23 159 -31 19
-3 46 -7 60 -10 14 -2 52 -7 85 -11 33 -3 64 -8 68 -11 14 -8 371 360 461 477
168 217 313 455 421 690 43 94 121 291 131 330 2 8 19 67 38 130 53 179 88
359 112 580 11 96 11 450 1 560 -46 509 -224 974 -514 1348 -72 93 -161 192
-173 192 -3 0 -5 -10 -6 -22z"/>
<path d="M5090 4163 c-26 -82 -62 -153 -112 -216 -33 -41 -33 -40 2 -152 25
-82 66 -237 74 -280 3 -16 10 -57 16 -90 5 -33 13 -80 16 -105 3 -25 7 -56 9
-70 23 -162 23 -547 0 -720 -2 -19 -7 -57 -10 -85 -9 -72 -34 -206 -57 -305
-11 -47 -22 -96 -24 -108 -11 -55 -99 -325 -136 -417 -43 -108 -167 -365 -219
-455 -147 -257 -319 -481 -549 -713 -70 -70 -124 -130 -120 -132 3 -2 100 -3
214 -1 l208 2 36 40 c163 179 360 449 476 654 62 108 202 399 244 505 93 237
185 560 216 765 11 71 27 176 31 205 25 183 26 597 1 800 -10 81 -19 140 -33
205 -8 41 -17 86 -19 100 -3 14 -10 43 -16 65 -5 22 -12 48 -14 58 -21 113
-182 527 -204 527 -3 0 -17 -35 -30 -77z"/>
<path d="M2690 3727 c-3 -3 -27 -8 -55 -12 -252 -33 -518 -302 -594 -600 -42
-165 -62 -319 -61 -475 0 -90 16 -217 19 -154 4 80 78 291 144 409 118 209
249 336 439 424 126 59 201 74 363 77 158 2 285 -14 395 -50 41 -14 76 -24 77
-22 6 6 -76 117 -126 170 -106 111 -245 193 -375 220 -62 13 -217 22 -226 13z"/>
<path d="M2010 3341 c-370 -120 -570 -416 -525 -779 19 -150 100 -306 234
-445 103 -107 281 -215 496 -300 77 -31 255 -81 255 -71 0 1 -26 17 -57 35
-187 106 -394 314 -479 480 -86 171 -119 395 -84 566 36 173 146 414 233 510
11 13 19 25 16 27 -2 2 -42 -8 -89 -23z"/>
<path d="M3187 3304 c-1 -1 -38 -5 -82 -8 -44 -4 -89 -9 -100 -11 -11 -2 -37
-7 -57 -10 -78 -10 -247 -55 -318 -83 -81 -32 -106 -56 -44 -42 56 13 249 10
339 -5 253 -42 416 -117 567 -262 112 -109 181 -227 231 -393 48 -164 61 -239
60 -357 0 -40 1 -73 4 -73 9 0 30 26 70 85 156 230 189 479 95 704 -112 266
-369 430 -710 454 -28 2 -53 3 -55 1z"/>
<path d="M2648 3099 c-326 -50 -570 -330 -570 -654 0 -326 231 -599 557 -660
39 -7 160 -7 210 0 238 35 448 213 525 444 122 367 -93 761 -467 856 -71 18
-187 25 -255 14z"/>
<path d="M3350 2824 c0 -4 9 -23 19 -43 83 -156 134 -464 107 -656 -28 -207
-149 -429 -301 -552 -132 -107 -271 -186 -410 -233 l-80 -27 59 -22 c145 -54
336 -69 471 -37 183 43 363 183 444 343 11 23 30 65 41 93 55 139 60 352 13
520 -49 173 -220 481 -332 598 -22 22 -31 27 -31 16z"/>
<path d="M1649 2109 c-8 -133 9 -284 42 -365 52 -129 121 -231 201 -297 231
-190 523 -216 821 -74 107 51 178 104 300 225 124 122 233 259 287 362 l13 25
-23 -20 c-12 -11 -41 -37 -64 -58 -143 -130 -436 -268 -604 -284 -256 -23
-443 24 -632 161 -132 95 -243 204 -312 308 -25 37 -28 39 -29 17z"/>
<path d="M900 249 c200 -96 557 -189 825 -214 39 -4 84 -9 100 -11 98 -13 535
-22 529 -12 -3 5 -11 8 -19 8 -55 0 -423 133 -564 205 -56 28 -79 34 -108 30
-187 -26 -571 -27 -703 -2 -47 8 -94 18 -105 21 -11 4 9 -8 45 -25z"/>
</g>
</svg>
